<svg width="249" height="268" viewBox="0 0 249 268" fill="none" xmlns="http://www.w3.org/2000/svg">
<g filter="url(#filter0_d_16_129)">
<circle cx="191.988" cy="96.34" r="25.6119" stroke="url(#paint0_linear_16_129)" stroke-width="28" shape-rendering="crispEdges"/>
</g>
<g filter="url(#filter1_d_16_129)">
<path d="M30.0642 7.20001C43.7962 7.20001 54.9285 18.3323 54.9285 32.0643V63.4442C54.9285 68.0168 54.6992 72.8185 54.2419 77.8484C54.0133 82.8784 53.4416 88.0225 52.5271 93.2811C51.8412 98.3109 51.0412 103.455 50.1267 108.714C49.6379 112.461 49.091 116.209 48.4861 119.956C48.1036 122.325 49.9228 124.49 52.323 124.49C54.0642 124.49 55.5864 123.323 56.075 121.652C59.1337 111.19 62.8668 102.076 67.2742 94.3104C72.3041 85.8509 78.7067 79.3342 86.4802 74.7615C94.2537 69.9604 104.085 67.5594 115.973 67.5594C128.965 67.5594 139.95 70.3952 148.929 76.0643C145.47 82.4521 143.507 89.7683 143.507 97.5428C143.507 119.009 158.48 136.976 178.552 141.573C178.901 146.591 179.077 151.871 179.077 157.413V227.547C179.077 241.279 167.945 252.411 154.213 252.411C140.481 252.411 129.348 241.279 129.348 227.547V164.958C129.348 145.753 126.491 131.578 120.775 122.432C115.288 113.058 106.942 108.371 95.739 108.371C86.5938 108.371 79.0486 111.115 73.1042 116.602C67.16 122.089 62.7014 129.52 59.7292 138.893C56.757 148.039 55.043 158.328 54.5857 169.76V227.719C54.5856 241.356 43.5296 252.411 29.8923 252.411C16.2553 252.411 5.20007 241.356 5.19995 227.719V32.0643C5.19996 18.3323 16.3322 7.20001 30.0642 7.20001Z" fill="#221D02"/>
</g>
<defs>
<filter id="filter0_d_16_129" x="147.176" y="49.5281" width="101.624" height="101.624" filterUnits="userSpaceOnUse" color-interpolation-filters="sRGB">
<feFlood flood-opacity="0" result="BackgroundImageFix"/>
<feColorMatrix in="SourceAlpha" type="matrix" values="0 0 0 0 0 0 0 0 0 0 0 0 0 0 0 0 0 0 127 0" result="hardAlpha"/>
<feOffset dx="6" dy="4"/>
<feGaussianBlur stdDeviation="5.6"/>
<feComposite in2="hardAlpha" operator="out"/>
<feColorMatrix type="matrix" values="0 0 0 0 0.759615 0 0 0 0 0.673611 0 0 0 0 0.186252 0 0 0 0.38 0"/>
<feBlend mode="normal" in2="BackgroundImageFix" result="effect1_dropShadow_16_129"/>
<feBlend mode="normal" in="SourceGraphic" in2="effect1_dropShadow_16_129" result="shape"/>
</filter>
<filter id="filter1_d_16_129" x="-4.86374e-05" y="1.23978e-05" width="196.277" height="267.611" filterUnits="userSpaceOnUse" color-interpolation-filters="sRGB">
<feFlood flood-opacity="0" result="BackgroundImageFix"/>
<feColorMatrix in="SourceAlpha" type="matrix" values="0 0 0 0 0 0 0 0 0 0 0 0 0 0 0 0 0 0 127 0" result="hardAlpha"/>
<feOffset dx="6" dy="4"/>
<feGaussianBlur stdDeviation="5.6"/>
<feComposite in2="hardAlpha" operator="out"/>
<feColorMatrix type="matrix" values="0 0 0 0 0.759615 0 0 0 0 0.673611 0 0 0 0 0.186252 0 0 0 0.38 0"/>
<feBlend mode="normal" in2="BackgroundImageFix" result="effect1_dropShadow_16_129"/>
<feBlend mode="normal" in="SourceGraphic" in2="effect1_dropShadow_16_129" result="shape"/>
</filter>
<linearGradient id="paint0_linear_16_129" x1="165.562" y1="62.6335" x2="231.6" y2="122.756" gradientUnits="userSpaceOnUse">
<stop stop-color="#FF4C4C"/>
<stop offset="1" stop-color="#FF5B46"/>
</linearGradient>
</defs>
</svg>
